ISO-10303-21;
HEADER;
FILE_DESCRIPTION (( 'STEP AP214' ),
    '1' );
FILE_NAME ('Þasi-Rollbar_montaj.STEP',
    '2025-03-20T20:58:39',
    ( '' ),
    ( '' ),
    'SwSTEP 2.0',
    'SolidWorks 2025',
    '' );
FILE_SCHEMA (( 'AUTOMOTIVE_DESIGN' ));
ENDSEC;

DATA;
#1 = APPLICATION_PROTOCOL_DEFINITION ( 'draft international standard', 'automotive_design', 1998, #96 ) ;
#2 = PROPERTY_DEFINITION_REPRESENTATION ( #67, #27 ) ;
#3 = PRODUCT_DEFINITION_CONTEXT ( 'detailed design', #68, 'design' ) ;
#4 = AXIS2_PLACEMENT_3D ( 'NONE', #23, #56, #61 ) ;
#5 = DIRECTION ( 'NONE',  ( 0.000000000000000000, 0.000000000000000000, 1.000000000000000000 ) ) ;
#6 = CARTESIAN_POINT ( 'NONE',  ( 0.000000000000000000, 0.000000000000000000, 0.000000000000000000 ) ) ;
#7 = DIRECTION ( 'NONE',  ( 0.000000000000000000, 0.000000000000000000, 1.000000000000000000 ) ) ;
#8 = CONTEXT_DEPENDENT_SHAPE_REPRESENTATION ( #91, #17 ) ;
#9 = APPLICATION_PROTOCOL_DEFINITION ( 'draft international standard', 'automotive_design', 1998, #81 ) ;
#10 = UNCERTAINTY_MEASURE_WITH_UNIT (LENGTH_MEASURE( 1.000000000000000082E-05 ), #98, 'distance_accuracy_value', 'NONE');
#11 = ROLE_ASSOCIATION ( #66, #40 ) ;
#12 = PRODUCT_DEFINITION_SHAPE ( 'NONE', 'NONE',  #84 ) ;
#13 = PRODUCT_DEFINITION ( 'General', '', #57, #74 ) ;
#14 = PRODUCT_DEFINITION_FORMATION_WITH_SPECIFIED_SOURCE ( 'Symmetric', '', #93, .NOT_KNOWN. ) ;
#15 =( NAMED_UNIT ( * ) SI_UNIT ( $, .STERADIAN. ) SOLID_ANGLE_UNIT ( ) );
#16 = DOCUMENT_FILE ( 'Rollbar_RollCage_tasar\X2\0131\X0\m\X2\0131\X0\_Varsay\X2\0131\X0\lan_As Welded_.STEP' , '', '', #95, '' ,$ ) ;
#17 = PRODUCT_DEFINITION_SHAPE ( 'NONE', 'NONE',  #108 ) ;
#18 = PRODUCT_CONTEXT ( 'NONE', #70, 'mechanical' ) ;
#19 = SHAPE_DEFINITION_REPRESENTATION ( #59, #35 ) ;
#20 = UNCERTAINTY_MEASURE_WITH_UNIT (LENGTH_MEASURE( 1.000000000000000082E-05 ), #29, 'distance_accuracy_value', 'NONE');
#21 = AXIS2_PLACEMENT_3D ( 'NONE', #6, #7, #88 ) ;
#22 =( NAMED_UNIT ( * ) PLANE_ANGLE_UNIT ( ) SI_UNIT ( $, .RADIAN. ) );
#23 = CARTESIAN_POINT ( 'NONE',  ( 0.000000000000000000, 0.000000000000000000, 0.000000000000000000 ) ) ;
#24 = DIRECTION ( 'NONE',  ( 0.000000000000000000, 0.000000000000000000, 1.000000000000000000 ) ) ;
#25 = AXIS2_PLACEMENT_3D ( 'NONE', #97, #5, #37 ) ;
#26 = PRODUCT ( 'Rollbar_RollCage_tasar\X2\0131\X0\m\X2\0131\X0\_Varsay\X2\0131\X0\lan<As Welded>', 'Rollbar_RollCage_tasar\X2\0131\X0\m\X2\0131\X0\_Varsay\X2\0131\X0\lan<As Welded>', '', ( #49 ) ) ;
#27 = SHAPE_REPRESENTATION ( 'Rollbar_RollCage_tasar\X2\0131\X0\m\X2\0131\X0\_Varsay\X2\0131\X0\lan<As Welded>', ( #21 ), #104 ) ;
#28 = APPLICATION_PROTOCOL_DEFINITION ( 'draft international standard', 'automotive_design', 1998, #68 ) ;
#29 =( LENGTH_UNIT ( ) NAMED_UNIT ( * ) SI_UNIT ( .MILLI., .METRE. ) );
#30 = PROPERTY_DEFINITION_REPRESENTATION ( #75, #86 ) ;
#31 = PROPERTY_DEFINITION_REPRESENTATION ( #54, #86 ) ;
#32 = CONTEXT_DEPENDENT_SHAPE_REPRESENTATION ( #44, #100 ) ;
#33 = PRODUCT_DEFINITION_CONTEXT ( 'detailed design', #102, 'design' ) ;
#34 = APPLIED_EXTERNAL_IDENTIFICATION_ASSIGNMENT ( 'Rollbar_RollCage_tasar\X2\0131\X0\m\X2\0131\X0\_Varsay\X2\0131\X0\lan_As Welded_.STEP' , #90, #78,( #16) ) ;
#35 = SHAPE_REPRESENTATION ( '\X2\015e\X0\asi-Rollbar_montaj', ( #4, #103, #99 ), #46 ) ;
#36 = DIRECTION ( 'NONE',  ( 1.000000000000000000, 0.000000000000000000, 0.000000000000000000 ) ) ;
#37 = DIRECTION ( 'NONE',  ( 1.000000000000000000, 0.000000000000000000, 0.000000000000000000 ) ) ;
#38 = CARTESIAN_POINT ( 'NONE',  ( 1223.802621677691150, 626.7370812933608022, 1287.005975949420417 ) ) ;
#39 =( NAMED_UNIT ( * ) SI_UNIT ( $, .STERADIAN. ) SOLID_ANGLE_UNIT ( ) );
#40 = APPLIED_DOCUMENT_REFERENCE ( #48,'',( #84) ) ;
#41 = PROPERTY_DEFINITION ('document property','', #16 ) ;
#42 = UNCERTAINTY_MEASURE_WITH_UNIT (LENGTH_MEASURE( 1.000000000000000082E-05 ), #82, 'distance_accuracy_value', 'NONE');
#43 = CARTESIAN_POINT ( 'NONE',  ( 1223.802621677690922, 626.7370812933608022, 1287.005975949420190 ) ) ;
#44 =( REPRESENTATION_RELATIONSHIP ('NONE','NONE', #35, #86 ) REPRESENTATION_RELATIONSHIP_WITH_TRANSFORMATION ( #58 )SHAPE_REPRESENTATION_RELATIONSHIP( ) );
#45 =( NAMED_UNIT ( * ) SI_UNIT ( $, .STERADIAN. ) SOLID_ANGLE_UNIT ( ) );
#46 =( GEOMETRIC_REPRESENTATION_CONTEXT ( 3 ) GLOBAL_UNCERTAINTY_ASSIGNED_CONTEXT ( ( #20 ) ) GLOBAL_UNIT_ASSIGNED_CONTEXT ( ( #29, #22, #45 ) ) REPRESENTATION_CONTEXT ( 'NONE', 'WORKASPACE' ) );
#47 = APPLICATION_CONTEXT ( 'automotive_design' ) ;
#48 = DOCUMENT_FILE ( 'Sasi_duzenleme_cak\X2\0131015f\X0\ma_yok_kare_As Machined_.STEP' , '', '', #72, '' ,$ ) ;
#49 = PRODUCT_CONTEXT ( 'NONE', #81, 'mechanical' ) ;
#50 = PRODUCT_RELATED_PRODUCT_CATEGORY ( 'part', '', ( #51 ) ) ;
#51 = PRODUCT ( '\X2\015e\X0\asi-Rollbar_montaj', '\X2\015e\X0\asi-Rollbar_montaj', '', ( #18 ) ) ;
#52 = PROPERTY_DEFINITION_REPRESENTATION ( #41, #27 ) ;
#53 = PRODUCT_CONTEXT ( 'NONE', #96, 'mechanical' ) ;
#54 = PROPERTY_DEFINITION ('external definition','', #48 ) ;
#55 = PRODUCT_DEFINITION_FORMATION_WITH_SPECIFIED_SOURCE ( 'Symmetric', '', #51, .NOT_KNOWN. ) ;
#56 = DIRECTION ( 'NONE',  ( 0.000000000000000000, 0.000000000000000000, 1.000000000000000000 ) ) ;
#57 = PRODUCT_DEFINITION_FORMATION_WITH_SPECIFIED_SOURCE ( 'Symmetric', '', #26, .NOT_KNOWN. ) ;
#58 = ITEM_DEFINED_TRANSFORMATION ( 'NONE', 'NONE', #103,  #25 ) ;
#59 = PRODUCT_DEFINITION_SHAPE ( 'NONE', 'NONE',  #62 ) ;
#60 =( GEOMETRIC_REPRESENTATION_CONTEXT ( 3 ) GLOBAL_UNCERTAINTY_ASSIGNED_CONTEXT ( ( #42 ) ) GLOBAL_UNIT_ASSIGNED_CONTEXT ( ( #82, #63, #15 ) ) REPRESENTATION_CONTEXT ( 'NONE', 'WORKASPACE' ) );
#61 = DIRECTION ( 'NONE',  ( 1.000000000000000000, 0.000000000000000000, 0.000000000000000000 ) ) ;
#62 = PRODUCT_DEFINITION ( 'General', '', #55, #3 ) ;
#63 =( NAMED_UNIT ( * ) PLANE_ANGLE_UNIT ( ) SI_UNIT ( $, .RADIAN. ) );
#64 = DIRECTION ( 'NONE',  ( 0.000000000000000000, 0.000000000000000000, 1.000000000000000000 ) ) ;
#65 = PRODUCT_RELATED_PRODUCT_CATEGORY ( 'part', '', ( #26 ) ) ;
#66 = OBJECT_ROLE ('mandatory',$ ) ;
#67 = PROPERTY_DEFINITION ('external definition','', #16 ) ;
#68 = APPLICATION_CONTEXT ( 'automotive_design' ) ;
#69 = PRODUCT_DEFINITION_SHAPE ( 'NONE', 'NONE',  #13 ) ;
#70 = APPLICATION_CONTEXT ( 'automotive_design' ) ;
#71 = IDENTIFICATION_ROLE ( 'external document id and location', $) ;
#72 = DOCUMENT_TYPE ( 'geometry' ) ;
#73 = ITEM_DEFINED_TRANSFORMATION ( 'NONE', 'NONE', #99,  #21 ) ;
#74 = PRODUCT_DEFINITION_CONTEXT ( 'detailed design', #47, 'design' ) ;
#75 = PROPERTY_DEFINITION ('document property','', #48 ) ;
#76 = APPLIED_DOCUMENT_REFERENCE ( #16,'',( #13) ) ;
#77 = EXTERNAL_SOURCE (IDENTIFIER('') ) ;
#78 = EXTERNAL_SOURCE (IDENTIFIER('') ) ;
#79 = PRODUCT_RELATED_PRODUCT_CATEGORY ( 'part', '', ( #93 ) ) ;
#80 = APPLICATION_PROTOCOL_DEFINITION ( 'draft international standard', 'automotive_design', 1998, #70 ) ;
#81 = APPLICATION_CONTEXT ( 'automotive_design' ) ;
#82 =( LENGTH_UNIT ( ) NAMED_UNIT ( * ) SI_UNIT ( .MILLI., .METRE. ) );
#83 = SHAPE_DEFINITION_REPRESENTATION ( #69, #27 ) ;
#84 = PRODUCT_DEFINITION ( 'General', '', #14, #33 ) ;
#85 = APPLICATION_PROTOCOL_DEFINITION ( 'draft international standard', 'automotive_design', 1998, #102 ) ;
#86 = SHAPE_REPRESENTATION ( 'Sasi_duzenleme_cak\X2\0131015f\X0\ma_yok_kare<As Machined>', ( #25 ), #60 ) ;
#87 = APPLIED_EXTERNAL_IDENTIFICATION_ASSIGNMENT ( 'Sasi_duzenleme_cak\X2\0131015f\X0\ma_yok_kare_As Machined_.STEP' , #71, #77,( #48) ) ;
#88 = DIRECTION ( 'NONE',  ( 1.000000000000000000, 0.000000000000000000, 0.000000000000000000 ) ) ;
#89 = DIRECTION ( 'NONE',  ( 1.000000000000000000, 0.000000000000000000, 0.000000000000000000 ) ) ;
#90 = IDENTIFICATION_ROLE ( 'external document id and location', $) ;
#91 =( REPRESENTATION_RELATIONSHIP ('NONE','NONE', #35, #27 ) REPRESENTATION_RELATIONSHIP_WITH_TRANSFORMATION ( #73 )SHAPE_REPRESENTATION_RELATIONSHIP( ) );
#92 = ROLE_ASSOCIATION ( #106, #76 ) ;
#93 = PRODUCT ( 'Sasi_duzenleme_cak\X2\0131015f\X0\ma_yok_kare<As Machined>', 'Sasi_duzenleme_cak\X2\0131015f\X0\ma_yok_kare<As Machined>', '', ( #53 ) ) ;
#94 = SHAPE_DEFINITION_REPRESENTATION ( #12, #86 ) ;
#95 = DOCUMENT_TYPE ( 'geometry' ) ;
#96 = APPLICATION_CONTEXT ( 'automotive_design' ) ;
#97 = CARTESIAN_POINT ( 'NONE',  ( 0.000000000000000000, 0.000000000000000000, 0.000000000000000000 ) ) ;
#98 =( LENGTH_UNIT ( ) NAMED_UNIT ( * ) SI_UNIT ( .MILLI., .METRE. ) );
#99 = AXIS2_PLACEMENT_3D ( 'NONE', #43, #24, #89 ) ;
#100 = PRODUCT_DEFINITION_SHAPE ( 'NONE', 'NONE',  #107 ) ;
#101 = APPLICATION_PROTOCOL_DEFINITION ( 'draft international standard', 'automotive_design', 1998, #47 ) ;
#102 = APPLICATION_CONTEXT ( 'automotive_design' ) ;
#103 = AXIS2_PLACEMENT_3D ( 'NONE', #38, #64, #36 ) ;
#104 =( GEOMETRIC_REPRESENTATION_CONTEXT ( 3 ) GLOBAL_UNCERTAINTY_ASSIGNED_CONTEXT ( ( #10 ) ) GLOBAL_UNIT_ASSIGNED_CONTEXT ( ( #98, #105, #39 ) ) REPRESENTATION_CONTEXT ( 'NONE', 'WORKASPACE' ) );
#105 =( NAMED_UNIT ( * ) PLANE_ANGLE_UNIT ( ) SI_UNIT ( $, .RADIAN. ) );
#106 = OBJECT_ROLE ('mandatory',$ ) ;
#107 = NEXT_ASSEMBLY_USAGE_OCCURRENCE ( 'NAUO1', ' ', ' ', #62, #84, $ ) ;
#108 = NEXT_ASSEMBLY_USAGE_OCCURRENCE ( 'NAUO2', ' ', ' ', #62, #13, $ ) ;
ENDSEC;
END-ISO-10303-21;
